<?xml version="1.0" encoding="utf-8"?>
<!-- Generator: Adobe Illustrator 22.0.1, SVG Export Plug-In . SVG Version: 6.00 Build 0)  -->
<svg version="1.1" id="Calque_1" xmlns="http://www.w3.org/2000/svg" xmlns:xlink="http://www.w3.org/1999/xlink" x="0px" y="0px"
	 viewBox="0 0 191 35" style="enable-background:new 0 0 191 35;" xml:space="preserve">
<style type="text/css">
	.st0{fill:#CB3032;}
	.st1{fill:#1B171B;}
</style>
<g id="SonarSource_Black_1_">
	<g>
		<path class="st0" d="M173.5,34.9h-2c0-16.2-13.4-29.4-29.8-29.4v-2C159.2,3.5,173.5,17.6,173.5,34.9z"/>
		<path class="st0" d="M174.9,24.1c-2.4-10.2-10.6-18.6-21-21.6l0.5-1.6C165.3,4,173.9,13,176.5,23.7L174.9,24.1z"/>
		<path class="st0" d="M176.4,14.6c-2.5-5.4-6.7-10.1-11.9-13.3l0.7-1.1c5.4,3.3,9.9,8.2,12.4,13.9L176.4,14.6z"/>
	</g>
	<g>
		<path class="st1" d="M0.8,30.3c0.9,0.5,2.8,1.2,4.2,1.2c1.5,0,2.1-0.5,2.1-1.3s-0.5-1.2-2.3-1.8c-3.3-1.1-4.5-2.9-4.5-4.8
			c0-2.9,2.5-5.2,6.5-5.2c1.8,0,3.5,0.4,4.5,0.9l-0.9,3.4c-0.7-0.4-2.1-0.9-3.4-0.9c-1.2,0-1.9,0.5-1.9,1.3c0,0.7,0.6,1.1,2.6,1.8
			c3,1,4.3,2.6,4.3,4.9c0,3-2.3,5.1-6.9,5.1c-2.1,0-3.9-0.5-5.1-1.1L0.8,30.3z"/>
		<path class="st1" d="M29.3,26.5c0,5.8-4.1,8.5-8.4,8.5c-4.6,0-8.2-3-8.2-8.2s3.4-8.4,8.5-8.4C26,18.4,29.3,21.7,29.3,26.5z
			 M17.8,26.6c0,2.7,1.1,4.8,3.2,4.8c1.9,0,3.1-1.9,3.1-4.8c0-2.4-0.9-4.8-3.1-4.8C18.7,21.9,17.8,24.3,17.8,26.6z"/>
		<path class="st1" d="M31,23.8c0-2-0.1-3.7-0.1-5.1h4.3l0.2,2.2h0.1c0.6-1,2.3-2.5,4.9-2.5c3.2,0,5.7,2.1,5.7,6.8v9.4h-4.9v-8.8
			c0-2-0.7-3.4-2.5-3.4c-1.4,0-2.2,0.9-2.5,1.8C36,24.5,36,25,36,25.4v9.1H31V23.8z"/>
		<path class="st1" d="M57.8,34.6L57.5,33h-0.1c-1,1.3-2.7,1.9-4.5,1.9c-3.2,0-5.1-2.3-5.1-4.9c0-4.1,3.7-6.1,9.3-6.1v-0.2
			c0-0.8-0.5-2-2.9-2c-1.6,0-3.3,0.6-4.4,1.2l-0.9-3.2c1.1-0.6,3.3-1.4,6.2-1.4c5.3,0,7,3.1,7,6.8v5.5c0,1.5,0.1,3,0.2,3.9H57.8z
			 M57.2,27.1c-2.6,0-4.6,0.6-4.6,2.5c0,1.3,0.8,1.9,1.9,1.9c1.2,0,2.2-0.8,2.6-1.8c0.1-0.3,0.1-0.6,0.1-0.8V27.1z"/>
		<path class="st1" d="M64.6,23.9c0-2.3-0.1-3.9-0.1-5.2h4.2l0.2,2.9H69c0.8-2.3,2.8-3.3,4.3-3.3c0.5,0,0.7,0,1,0.1v4.6
			C74,23,73.5,22.9,73,22.9c-1.8,0-3,1-3.4,2.5c-0.1,0.3-0.1,0.7-0.1,1.1v8h-4.9V23.9z"/>
		<path class="st1" d="M75.6,31.7c0.8,0.5,2.3,1.1,3.8,1.1c2.1,0,3-1,3-2.3c0-1.4-0.8-2.1-2.9-2.9c-2.8-1-4.2-2.6-4.2-4.4
			c0-2.5,2-4.6,5.4-4.6c1.6,0,3,0.5,3.9,1l-0.7,2.1c-0.6-0.4-1.8-0.9-3.2-0.9c-1.7,0-2.6,1-2.6,2.1c0,1.3,0.9,1.9,3,2.7
			c2.7,1,4.1,2.4,4.1,4.7c0,2.8-2.1,4.7-5.9,4.7c-1.7,0-3.3-0.4-4.4-1.1L75.6,31.7z"/>
		<path class="st1" d="M101.8,26.6c0,5.8-4,8.3-7.8,8.3c-4.2,0-7.5-3.1-7.5-8.1c0-5.3,3.4-8.3,7.8-8.3
			C98.7,18.5,101.8,21.8,101.8,26.6z M89.3,26.8c0,3.4,2,6,4.8,6c2.7,0,4.8-2.6,4.8-6.1c0-2.7-1.3-6-4.7-6
			C90.8,20.7,89.3,23.8,89.3,26.8z"/>
		<path class="st1" d="M117.2,30.3c0,1.6,0,3,0.1,4.3h-2.5l-0.2-2.6h-0.1c-0.7,1.3-2.4,2.9-5.2,2.9c-2.5,0-5.4-1.4-5.4-6.9v-9.2h2.9
			v8.7c0,3,0.9,5,3.5,5c1.9,0,3.2-1.3,3.8-2.6c0.2-0.4,0.3-0.9,0.3-1.5v-9.6h2.9V30.3z"/>
		<path class="st1" d="M120.6,23.8c0-1.8,0-3.4-0.1-4.9h2.5l0.1,3.1h0.1c0.7-2.1,2.4-3.4,4.3-3.4c0.3,0,0.6,0,0.8,0.1v2.7
			c-0.3-0.1-0.6-0.1-1-0.1c-2,0-3.4,1.5-3.8,3.7c-0.1,0.4-0.1,0.8-0.1,1.3v8.4h-2.8V23.8z"/>
		<path class="st1" d="M140.8,34c-0.7,0.4-2.4,0.9-4.5,0.9c-4.7,0-7.8-3.2-7.8-8c0-4.8,3.3-8.3,8.4-8.3c1.7,0,3.2,0.4,4,0.8
			l-0.7,2.2c-0.7-0.4-1.7-0.7-3.3-0.7c-3.6,0-5.5,2.7-5.5,5.9c0,3.6,2.3,5.9,5.4,5.9c1.6,0,2.7-0.4,3.5-0.8L140.8,34z"/>
		<path class="st1" d="M144.3,27.2c0.1,3.9,2.5,5.5,5.4,5.5c2,0,3.3-0.4,4.3-0.8l0.5,2c-1,0.5-2.7,1-5.2,1c-4.8,0-7.7-3.2-7.7-7.9
			c0-4.7,2.8-8.5,7.4-8.5c5.1,0,6.5,4.5,6.5,7.4c0,0.6-0.1,1-0.1,1.3H144.3z M152.6,25.2c0-1.8-0.7-4.6-4-4.6
			c-2.9,0-4.2,2.7-4.4,4.6H152.6z"/>
	</g>
</g>
</svg>
