<?xml version="1.0" encoding="UTF-8"?>
<svg width="200px" height="250px" viewBox="0 0 200 250" version="1.1" xmlns="http://www.w3.org/2000/svg" xmlns:xlink="http://www.w3.org/1999/xlink">
    <!-- Generator: Sketch 47.1 (45422) - http://www.bohemiancoding.com/sketch -->
    <title>logo</title>
    <desc>Created with Sketch.</desc>
    <defs></defs>
    <g id="Page-1" stroke="none" stroke-width="1" fill="none" fill-rule="evenodd">
        <g id="logo" fill-rule="nonzero">
            <g id="C">
                <polygon id="Shape" fill="#0D47A1" points="120 11.5 120 34.75 40 79.5 40 169.5 20 180.75 20 68.25"></polygon>
                <polygon id="Shape" fill="#1E88E5" points="100 0.25 0 57 20 68.25 120 11.5"></polygon>
                <polygon id="Shape" fill="#1E88E5" points="40 169.5 120 214.75 100 226 20 180.75"></polygon>
                <polygon id="Shape" fill="#64B5F6" points="0 57 0 192 100 249.75 100 226 20 180.75 20 68.25"></polygon>
                <polygon id="Shape" fill="#0D47A1" points="100 249.75 100 226 120 214.75 120 238.5"></polygon>
            </g>
            <g id="i" transform="translate(160.000000, 45.000000)">
                <polygon id="Shape" fill="#81C784" points="20 161 20 67.25 0 56 0 149.75"></polygon>
                <polygon id="Shape" fill="#1B5E20" points="20 161 20 101.84259 20 67.25 40 56 40 149.75"></polygon>
                <polygon id="Shape" fill="#43A047" points="40 56.25 20 67.5 0 56.25 20 45"></polygon>
                <polygon id="Shape" fill="#BF360C" points="20 45 20 22.5 40 11.25 40 33.75"></polygon>
                <polygon id="Shape" fill="#FF8A65" points="20 22.5 20 45 0 33.75 0 11.25"></polygon>
                <polygon id="Shape" fill="#F4511E" points="40 11.25 20 22.5 0 11.25 20 0"></polygon>
            </g>
        </g>
    </g>
</svg>
