<?xml version="1.0" encoding="UTF-8"?>
<svg width="200px" height="200px" viewBox="0 0 200 200" version="1.1" xmlns="http://www.w3.org/2000/svg" xmlns:xlink="http://www.w3.org/1999/xlink">
    <!-- Generator: Sketch 47.1 (45422) - http://www.bohemiancoding.com/sketch -->
    <title>cirrus-ci-logo</title>
    <desc>Created with Sketch.</desc>
    <defs></defs>
    <g id="Page-1" stroke="none" stroke-width="1" fill="none" fill-rule="evenodd">
        <g id="cirrus-ci-logo" fill-rule="nonzero">
            <g id="i" transform="translate(160.000000, 45.000000)">
                <polygon id="Shape" fill="#81C784" points="20 155 20 67.25 0 56 0 144.75"></polygon>
                <polygon id="Shape" fill="#1B5E20" points="20 155 20 101.84259 20 67.25 40 56 40 147"></polygon>
                <polygon id="Shape" fill="#43A047" points="40 56.25 20 67.5 0 56.25 20 45"></polygon>
                <polygon id="Shape" fill="#BF360C" points="20 45 20 22.5 40 11.25 40 33.75"></polygon>
                <polygon id="Shape" fill="#FF8A65" points="20 22.5 20 45 0 33.75 0 11.25"></polygon>
                <polygon id="Shape" fill="#F4511E" points="40 11.25 20 22.5 0 11.25 20 0"></polygon>
            </g>
            <g id="C">
                <polygon id="Shape" fill="#1E88E5" points="100 0.25 0 56.25 20 67.5 120 11.5"></polygon>
                <polygon id="Shape" fill="#1E88E5" points="40 166.25 120 121.25 100 110 20 155"></polygon>
                <polygon id="Shape" fill="#0D47A1" points="120 11.5 120 34.75 40 78.75 40 166.25 120 121.25 120 143.75 20 200 20 67.5"></polygon>
                <polygon id="Shape" fill="#64B5F6" points="0 56.25 0 189.75 20 200 20 67.5"></polygon>
            </g>
        </g>
    </g>
</svg>