<?xml version="1.0" encoding="UTF-8"?>
<svg width="743px" height="401px" viewBox="0 0 743 401" version="1.1" xmlns="http://www.w3.org/2000/svg" xmlns:xlink="http://www.w3.org/1999/xlink">
    <title>cirrus-ci-communication</title>
    <defs></defs>
    <g id="Page-1" stroke="none" stroke-width="1" fill="none" fill-rule="evenodd">
        <g id="cirrus-ci-communication" transform="translate(5.000000, 5.000000)">
            <path d="M598,60 C452.846829,60 344.021255,60 271.523278,60 C199.0253,60 145.850874,60 112,60" id="Line-2" stroke="#AED581" stroke-width="4" stroke-linecap="square" transform="translate(355.000000, 60.500000) scale(1, -1) translate(-355.000000, -60.500000) "></path>
            <path id="Line-2-decoration-1" d="M112,60 L122.8,63 L122.8,57 L112,60 Z" stroke="#AED581" stroke-width="4" stroke-linecap="square"></path>
            <path d="M418,281 L621,98" id="Line" stroke="#2196F3" stroke-width="4" stroke-linecap="square"></path>
            <path id="Line-decoration-1" d="M621,98 L610.969608,103.003122 L614.987033,107.459611 L621,98 Z" stroke="#2196F3" stroke-width="4" stroke-linecap="square"></path>
            <g id="cirrus-labs-logo" stroke="#333333" stroke-width="9" stroke-linecap="round">
                <path d="M0.125,90.425 L79.675,90.425" id="Shape" fill="#000000" fill-rule="nonzero"></path>
                <path d="M79.675,90.425 C87.9868855,90.425 94.725,83.6868855 94.725,75.375 C94.725,67.0631145 87.9868855,60.325 79.675,60.325" id="Shape"></path>
                <path d="M0.125,60.325 L79.675,60.325" id="Shape" fill="#000000" fill-rule="nonzero"></path>
                <path d="M79.675,60.325 C87.9868855,60.325 94.725,53.5868855 94.725,45.275 C94.725,36.9631145 87.9868855,30.225 79.675,30.225" id="Shape"></path>
                <path d="M0.125,30.225 L79.675,30.225" id="Shape" fill="#000000" fill-rule="nonzero"></path>
                <path d="M79.675,30.225 C87.9868854,30.2249999 94.7249998,23.4868854 94.7249998,15.175 C94.7249998,6.8631146 87.9868854,0.125000124 79.675,0.125" id="Shape"></path>
            </g>
            <path d="M106,102 L332,280" id="Line" stroke="#2196F3" stroke-width="4" stroke-linecap="square"></path>
            <path id="Line-decoration-1" d="M332,280 L325.371811,270.960802 L321.659357,275.674366 L332,280 Z" stroke="#2196F3" stroke-width="4" stroke-linecap="square"></path>
            <g id="Generic-GCP" transform="translate(312.000000, 280.000000)" fill-rule="nonzero">
                <path d="M126.47,52.12 L100.17,6.38 C98.1575606,2.81119396 94.4064352,0.574214465 90.31,0.5 L37.7,0.5 C33.6029889,0.572194784 29.8509362,2.80972722 27.84,6.38 L1.53,52 C-0.505344201,55.5417451 -0.505344201,59.8982549 1.53,63.44 L27.83,109.44 C29.8203239,113.059541 33.5623947,115.37082 37.69,115.53 L90.3,115.53 C94.4273864,115.388325 98.1761765,113.086636 100.17,109.47 L126.47,63.73 C128.519489,60.1313439 128.519489,55.7186561 126.47,52.12 Z" id="Shape" fill="#4285F4"></path>
                <path d="M79.66,32.74 L53,37 L47.76,54.5 L39.68,47.5 L48.16,83.13 L80.5,115.5 L90.3,115.5 C94.4273864,115.358325 98.1761765,113.056636 100.17,109.44 L120.6,73.91 L79.66,32.74 Z" id="Shape" fill="#000000" opacity="0.0700000003"></path>
                <g id="Group" transform="translate(34.000000, 31.000000)" fill="#FFFFFF">
                    <path d="M37.76,27.08 C37.76,31.4596181 34.2096181,35.01 29.83,35.01 C25.4503819,35.01 21.9,31.4596181 21.9,27.08 C21.9,22.7003819 25.4503819,19.15 29.83,19.15 C34.2096181,19.15 37.76,22.7003819 37.76,27.08 L37.76,27.08" id="Shape"></path>
                    <path d="M59.19,25 L53.25,14.69 L41.14,14.69 L48.23,27 L46.32,30.33 L39.11,42.89 L36.88,46.76 L33,53.46 L42.84,53.46 C44.2604442,53.4514262 45.5697908,52.6901781 46.28,51.46 L59.19,29 C59.8854459,27.7751647 59.8854459,26.2748353 59.19,25.05" id="Shape"></path>
                    <path d="M20.85,42.89 L11.73,27 L5.67,16.51 L0.77,25 C0.0745541168,26.2248353 0.0745541168,27.7251647 0.77,28.95 L13.66,51.47 C14.3702092,52.7001781 15.6795558,53.4614262 17.1,53.47 L28.93,53.47 L35,42.89 L20.85,42.89 Z" id="Shape"></path>
                    <path d="M51.23,11.17 L46.31,2.59 C45.5997908,1.35982186 44.2904442,0.598573845 42.87,0.59 L17.09,0.59 C15.6695558,0.598573845 14.3602092,1.35982186 13.65,2.59 L7.68,13 L13.75,23.51 L20.85,11.17 L51.23,11.17 Z" id="Shape"></path>
                </g>
            </g>
            <g id="Cloud-Datastore" transform="translate(610.000000, 3.000000)" fill-rule="nonzero">
                <path d="M126.47,52.12 L100.17,6.38 C98.1575606,2.81119396 94.4064352,0.574214465 90.31,0.5 L37.7,0.5 C33.6029889,0.572194784 29.8509362,2.80972722 27.84,6.38 L1.53,52 C-0.505344201,55.5417451 -0.505344201,59.8982549 1.53,63.44 L27.83,109.44 C29.8203239,113.059541 33.5623947,115.37082 37.69,115.53 L90.3,115.53 C94.4273864,115.388325 98.1761765,113.086636 100.17,109.47 L126.47,63.73 C128.519489,60.1313439 128.519489,55.7186561 126.47,52.12 Z" id="Shape" fill="#4285F4"></path>
                <path d="M85.51,44.7 L76,45.46 L76,51.63 L69,44.63 L59.78,45.63 L59.78,51.74 L52.68,44.64 L42.48,54.94 L48.84,61.3 L42.67,61.53 L42.53,71.39 L86.65,115.5 L90.3,115.5 C94.4273864,115.358325 98.1761765,113.056636 100.17,109.44 L118.45,77.64 L85.51,44.7 Z" id="Shape" fill="#000000" opacity="0.0700000003"></path>
                <path d="M51.84,44.32 L43.33,44.32 C42.6617355,44.32 42.12,44.8617355 42.12,45.53 L42.12,54.08 C42.12,54.7482645 42.6617355,55.29 43.33,55.29 L51.84,55.29 C52.5082645,55.29 53.05,54.7482645 53.05,54.08 L53.05,45.53 C53.044563,44.8640005 52.5059995,44.325437 51.84,44.32" id="Shape" fill="#FFFFFF"></path>
                <path d="M68.25,60.72 L59.74,60.72 C59.0717355,60.72 58.53,61.2617355 58.53,61.93 L58.53,70.48 C58.53,71.1482645 59.0717355,71.69 59.74,71.69 L68.25,71.69 C68.9182645,71.69 69.46,71.1482645 69.46,70.48 L69.46,61.93 C69.46,61.2617355 68.9182645,60.72 68.25,60.72" id="Shape" fill="#FFFFFF"></path>
                <path d="M84.67,60.72 L76.15,60.72 C75.4817355,60.72 74.94,61.2617355 74.94,61.93 L74.94,70.48 C74.94,71.1482645 75.4817355,71.69 76.15,71.69 L84.66,71.69 C85.3282645,71.69 85.87,71.1482645 85.87,70.48 L85.87,61.93 C85.87,61.2617355 85.3282645,60.72 84.66,60.72" id="Shape" fill="#FFFFFF"></path>
                <path d="M51.84,60.72 L43.33,60.72 C42.6640005,60.725437 42.125437,61.2640005 42.12,61.93 L42.12,70.48 C42.12,71.1482645 42.6617355,71.69 43.33,71.69 L51.84,71.69 C52.492554,71.6630391 53.0059543,71.1230835 53,70.47 L53,61.93 C52.994563,61.2640005 52.4559995,60.725437 51.79,60.72 L51.84,60.72 Z M50.57,69.24 L44.55,69.24 L44.55,63.16 L50.63,63.16 L50.57,69.24 Z" id="Shape" fill="#FFFFFF"></path>
                <path d="M68.25,44.32 L59.74,44.32 C59.0717355,44.32 58.53,44.8617355 58.53,45.53 L58.53,54.08 C58.53,54.7482645 59.0717355,55.29 59.74,55.29 L68.25,55.29 C68.9182645,55.29 69.46,54.7482645 69.46,54.08 L69.46,45.53 C69.46,44.8617355 68.9182645,44.32 68.25,44.32 L68.25,44.32 Z M67,52.84 L61,52.84 L61,46.76 L67,46.76 L67,52.84 Z" id="Shape" fill="#FFFFFF"></path>
                <path d="M84.67,44.32 L76.16,44.32 C75.4917355,44.32 74.95,44.8617355 74.95,45.53 L74.95,54.08 C74.95,54.7482645 75.4917355,55.29 76.16,55.29 L84.67,55.29 C85.3382645,55.29 85.88,54.7482645 85.88,54.08 L85.88,45.53 C85.874563,44.8640005 85.3359995,44.325437 84.67,44.32 L84.67,44.32 Z M83.45,52.84 L77.37,52.84 L77.37,46.76 L83.45,46.76 L83.45,52.84 Z" id="Shape" fill="#FFFFFF"></path>
            </g>
        </g>
    </g>
</svg>
