<?xml version="1.0" encoding="utf-8"?>
<!-- Generator: Adobe Illustrator 24.0.2, SVG Export Plug-In . SVG Version: 6.00 Build 0)  -->
<svg version="1.1" id="Layer_1" xmlns="http://www.w3.org/2000/svg" xmlns:xlink="http://www.w3.org/1999/xlink" x="0px" y="0px"
	 viewBox="0 0 42 42" style="enable-background:new 0 0 42 42;" xml:space="preserve">
<style type="text/css">
	.st0{fill:#FFFFFF;}
	.st1{fill:#2C5967;}
</style>
<g>
	<g>
		<path class="st0" d="M2.67,41.5c-1.19,0-2.17-0.97-2.17-2.17V2.67c0-1.19,0.97-2.17,2.17-2.17h36.67c1.19,0,2.17,0.97,2.17,2.17
			v36.67c0,1.19-0.97,2.17-2.17,2.17H2.67z"/>
		<path class="st0" d="M39.33,1C40.25,1,41,1.75,41,2.67v36.67c0,0.92-0.75,1.67-1.67,1.67H2.67C1.75,41,1,40.25,1,39.33V2.67
			C1,1.75,1.75,1,2.67,1H39.33 M39.33,0H2.67C1.2,0,0,1.2,0,2.67v36.67C0,40.8,1.2,42,2.67,42h36.67C40.8,42,42,40.8,42,39.33V2.67
			C42,1.2,40.8,0,39.33,0L39.33,0z"/>
	</g>
	<g>
		<path class="st1" d="M39.33,1H2.67C1.75,1,1,1.75,1,2.67v36.67C1,40.25,1.75,41,2.67,41h36.67c0.92,0,1.67-0.75,1.67-1.67V2.67
			C41,1.75,40.25,1,39.33,1z M39.52,39.33c0,0.1-0.08,0.19-0.19,0.19H2.67c-0.1,0-0.19-0.08-0.19-0.19V2.67
			c0-0.1,0.08-0.19,0.19-0.19h36.67c0.1,0,0.19,0.08,0.19,0.19V39.33z"/>
		<path class="st1" d="M20.35,5.44h-8.89v8.89h8.89V5.44z M18.87,12.85h-5.93V6.93h5.93V12.85z"/>
		<path class="st1" d="M30.35,5.44h-8.89v8.89h8.89V5.44z M28.87,12.85h-5.93V6.93h5.93V12.85z"/>
		<polygon class="st1" points="18.04,16.93 23.96,16.93 23.96,19.27 25.44,19.64 25.44,15.44 16.56,15.44 16.56,19.64 18.04,19.27 
					"/>
		<polygon class="st1" points="28.04,16.93 33.96,16.93 33.96,21.75 35.44,22.12 35.44,15.44 26.56,15.44 26.56,19.92 28.04,20.28 
					"/>
		<polygon class="st1" points="8.04,16.93 13.96,16.93 13.96,20.28 15.44,19.92 15.44,15.44 6.56,15.44 6.56,22.12 8.04,21.75 		"/>
		<path class="st1" d="M21,19.68L5.18,23.61l0.18,0.72c1.78,7.2,8.21,12.23,15.64,12.23s13.86-5.03,15.64-12.23l0.18-0.72L21,19.68z
			 M20.26,21.39v13.66C14.08,34.75,8.78,30.6,6.99,24.68L20.26,21.39z M21,35.63L21,35.63L21,35.63z M21.74,35.05V21.39l13.27,3.29
			C33.22,30.6,27.92,34.75,21.74,35.05z"/>
	</g>
</g>
</svg>
